<svg width="32" height="25" viewBox="0 0 32 25" fill="none" xmlns="http://www.w3.org/2000/svg">
<path d="M5.81856 24.8758V23.2211C5.81856 22.5867 5.43435 22.1731 4.77579 22.1731C4.44657 22.1731 4.08986 22.2834 3.84288 22.642C3.6509 22.3386 3.37656 22.1731 2.96497 22.1731C2.6905 22.1731 2.41628 22.2558 2.19668 22.5592V22.2283H1.62048V24.8758H2.19668V23.4141C2.19668 22.9454 2.44365 22.7246 2.82786 22.7246C3.21182 22.7246 3.40405 22.9729 3.40405 23.4141V24.8758H3.98024V23.4141C3.98024 22.9454 4.25447 22.7246 4.61118 22.7246C4.99539 22.7246 5.18737 22.9729 5.18737 23.4141V24.8758H5.81856ZM14.3516 22.2283H13.4188V21.4285H12.8426V22.2283H12.3213V22.7522H12.8425V23.9657C12.8425 24.5725 13.0894 24.9309 13.748 24.9309C13.995 24.9309 14.2692 24.8483 14.4614 24.738L14.2967 24.2415C14.1321 24.3518 13.9401 24.3794 13.8029 24.3794C13.5285 24.3794 13.4188 24.214 13.4188 23.9381V22.7522H14.3516V22.2283ZM19.2356 22.173C18.9064 22.173 18.6869 22.3386 18.5496 22.5592V22.2283H17.9735V24.8758H18.5496V23.3866C18.5496 22.9454 18.7416 22.6971 19.0983 22.6971C19.2081 22.6971 19.3453 22.7248 19.4551 22.7523L19.6197 22.2008C19.5099 22.1731 19.3453 22.1731 19.2356 22.1731M11.8548 22.449C11.5803 22.2559 11.1963 22.1733 10.7847 22.1733C10.1262 22.1733 9.68729 22.5042 9.68729 23.0282C9.68729 23.4695 10.0165 23.7176 10.5927 23.8004L10.867 23.828C11.1689 23.8831 11.3335 23.9658 11.3335 24.1038C11.3335 24.2968 11.114 24.4347 10.7298 24.4347C10.3456 24.4347 10.0439 24.2968 9.85177 24.1589L9.57743 24.6001C9.87927 24.8207 10.2909 24.931 10.7023 24.931C11.4706 24.931 11.9097 24.5726 11.9097 24.0761C11.9097 23.6073 11.553 23.3591 11.0042 23.2764L10.7298 23.2488C10.4828 23.2211 10.2909 23.1661 10.2909 23.0006C10.2909 22.8076 10.4828 22.6973 10.7847 22.6973C11.114 22.6973 11.4432 22.8351 11.6078 22.9179L11.8548 22.449ZM27.1651 22.1733C26.8358 22.1733 26.6163 22.3387 26.4791 22.5593V22.2284H25.9029V24.8759H26.4791V23.3867C26.4791 22.9455 26.6712 22.6973 27.0278 22.6973C27.1376 22.6973 27.2749 22.7249 27.3846 22.7524L27.5492 22.2009C27.4395 22.1733 27.2749 22.1733 27.1651 22.1733ZM19.8118 23.5522C19.8118 24.3519 20.3605 24.931 21.2111 24.931C21.5952 24.931 21.8696 24.8484 22.1439 24.6278L21.8696 24.1589C21.6501 24.3244 21.4306 24.4071 21.1836 24.4071C20.7172 24.4071 20.388 24.0762 20.388 23.5522C20.388 23.0558 20.7172 22.7248 21.1836 22.6973C21.4306 22.6973 21.6501 22.7799 21.8696 22.9455L22.1439 22.4767C21.8696 22.2559 21.5952 22.1733 21.2111 22.1733C20.3605 22.1733 19.8118 22.7524 19.8118 23.5522ZM25.1347 23.5522V22.2284H24.5585V22.5593C24.3664 22.3112 24.0921 22.1733 23.7354 22.1733C22.9946 22.1733 22.4184 22.7524 22.4184 23.5522C22.4184 24.3519 22.9946 24.931 23.7354 24.931C24.1195 24.931 24.3939 24.7932 24.5585 24.545V24.8759H25.1347V23.5522ZM23.0219 23.5522C23.0219 23.0833 23.3238 22.6973 23.8176 22.6973C24.2841 22.6973 24.6134 23.0558 24.6134 23.5522C24.6134 24.021 24.2841 24.4071 23.8176 24.4071C23.3238 24.3794 23.0219 24.021 23.0219 23.5522ZM16.1351 22.1733C15.3668 22.1733 14.818 22.7248 14.818 23.5522C14.818 24.3795 15.3667 24.931 16.1625 24.931C16.5466 24.931 16.9308 24.8207 17.2327 24.5726L16.9582 24.1589C16.7387 24.3244 16.4644 24.4347 16.19 24.4347C15.8333 24.4347 15.4766 24.2692 15.3942 23.8003H17.3424V23.5798C17.3699 22.7248 16.8761 22.1733 16.1351 22.1733ZM16.135 22.6696C16.4916 22.6696 16.7387 22.8903 16.7934 23.304H15.4216C15.4765 22.9455 15.7234 22.6696 16.135 22.6696ZM30.4301 23.5522V21.1804H29.8539V22.5593C29.6618 22.3112 29.3874 22.1733 29.0307 22.1733C28.2899 22.1733 27.7137 22.7524 27.7137 23.5522C27.7137 24.3519 28.2899 24.931 29.0307 24.931C29.4149 24.931 29.6893 24.7932 29.8539 24.545V24.8759H30.4301V23.5522ZM28.3174 23.5522C28.3174 23.0833 28.6191 22.6973 29.1131 22.6973C29.5795 22.6973 29.9087 23.0558 29.9087 23.5522C29.9087 24.021 29.5795 24.4071 29.1131 24.4071C28.6191 24.3794 28.3174 24.021 28.3174 23.5522ZM9.05598 23.5522V22.2284H8.47979V22.5593C8.28768 22.3112 8.01334 22.1733 7.65662 22.1733C6.91582 22.1733 6.33963 22.7524 6.33963 23.5522C6.33963 24.3519 6.91582 24.931 7.65662 24.931C8.04083 24.931 8.31518 24.7932 8.47979 24.545V24.8759H9.05598V23.5522ZM6.91582 23.5522C6.91582 23.0833 7.21767 22.6973 7.71149 22.6973C8.17794 22.6973 8.50729 23.0558 8.50729 23.5522C8.50729 24.021 8.17794 24.4071 7.71149 24.4071C7.21767 24.3794 6.91582 24.021 6.91582 23.5522Z" fill="black"/>
<path d="M11.6627 2.12354H20.3056V17.733H11.6627V2.12354Z" fill="#FF5F00"/>
<path d="M12.2115 9.92827C12.2115 6.75678 13.6931 3.94372 15.9704 2.12349C14.2968 0.799749 12.1842 0 9.8794 0C4.41908 0 0.00164795 4.44007 0.00164795 9.92827C0.00164795 15.4165 4.41908 19.8565 9.87927 19.8565C12.184 19.8565 14.2967 19.0568 15.9704 17.7329C13.6931 15.9403 12.2115 13.0997 12.2115 9.92827Z" fill="#EB001B"/>
<path d="M31.9667 9.92827C31.9667 15.4163 27.5493 19.8565 22.0891 19.8565C19.7843 19.8565 17.6716 19.0568 15.9979 17.7329C18.3027 15.9128 19.7569 13.0997 19.7569 9.92827C19.7569 6.75678 18.2752 3.94372 15.9979 2.12349C17.6715 0.799749 19.7843 0 22.0891 0C27.5493 0 31.9667 4.46771 31.9667 9.92827Z" fill="#F79E1B"/>
</svg>
