<svg width="32" height="14" viewBox="0 0 32 14" fill="none" xmlns="http://www.w3.org/2000/svg">
<path d="M12.1496 0.179298L7.95996 9.9987H5.22672L3.16498 2.16189C3.03999 1.68037 2.93136 1.50316 2.55099 1.29954C1.92924 0.967719 0.902496 0.657386 0 0.464333L0.0608747 0.179298H4.46135C5.02135 0.179298 5.5256 0.545632 5.65385 1.17993L6.74322 6.86258L9.4327 0.179298H12.1496ZM15.8445 0.179298L13.7067 9.9987H11.1207L13.2588 0.179298H15.8445ZM22.859 6.7927C22.8698 4.2016 19.2123 4.05779 19.2362 2.90009C19.2449 2.54812 19.5862 2.17344 20.3332 2.07765C20.7031 2.03061 21.7254 1.99316 22.8833 2.5173L23.3363 0.433754C22.7141 0.212702 21.9135 0 20.9176 0C18.3614 0 16.5633 1.33393 16.5489 3.24554C16.5322 4.65954 17.8333 5.4476 18.8118 5.91856C19.8197 6.39947 20.1577 6.70858 20.153 7.1384C20.1458 7.79726 19.348 8.08893 18.6064 8.09974C17.3059 8.12 16.552 7.7544 15.9507 7.47919L15.4813 9.63175C16.0863 9.90414 17.2013 10.1408 18.3562 10.1528C21.0736 10.1528 22.851 8.83412 22.859 6.7927ZM29.609 9.99882H31.9998L29.9111 0.179298H27.7052C27.2077 0.179298 26.7896 0.462982 26.6041 0.89907L22.7241 9.9987H25.4395L25.9781 8.53189H29.2956L29.609 9.99882ZM26.7227 6.51982L28.0842 2.8323L28.8664 6.51982H26.7227ZM19.154 12.7017H18.1033V13.6624H19.2785V13.9512H17.7493V11.286H19.2183V11.5748H18.1033V12.4169H19.1539L19.154 12.7017ZM19.8214 11.1438H20.1754V13.9511H19.8214V11.1438ZM21.0686 13.0575C21.0766 13.5282 21.3786 13.7218 21.7366 13.7218C21.9904 13.7218 22.1473 13.6784 22.2763 13.6231L22.3405 13.8723C22.2158 13.9275 21.9985 13.9947 21.6884 13.9947C21.0889 13.9947 20.7308 13.6033 20.7308 13.0259C20.7308 12.4487 21.0766 11.9978 21.6443 11.9978C22.2843 11.9978 22.4493 12.5436 22.4493 12.8955C22.4493 12.9666 22.4451 13.0179 22.437 13.0576L21.0686 13.0575ZM22.107 12.8084C22.1111 12.591 22.0145 12.2469 21.616 12.2469C21.2538 12.2469 21.1008 12.5672 21.0725 12.8084H22.107ZM24.3763 13.8839C24.2838 13.9275 24.0784 13.9948 23.8169 13.9948C23.2293 13.9948 22.8469 13.6033 22.8469 13.018C22.8469 12.4288 23.2573 11.9979 23.8933 11.9979C24.1025 11.9979 24.2876 12.0491 24.3843 12.1007L24.304 12.3656C24.2191 12.3221 24.0864 12.2744 23.8933 12.2744C23.4464 12.2744 23.2051 12.6027 23.2051 12.9984C23.2051 13.4411 23.4949 13.714 23.8813 13.714C24.0825 13.714 24.2153 13.6666 24.3159 13.6231L24.3763 13.8839ZM25.3698 11.5786V12.0373H25.8767V12.3021H25.3698V13.3343C25.3698 13.5718 25.4383 13.706 25.6354 13.706C25.7319 13.706 25.7884 13.6983 25.8407 13.6822L25.8569 13.9474C25.7884 13.971 25.6797 13.9947 25.5429 13.9947C25.3778 13.9947 25.2449 13.9393 25.1605 13.8486C25.0639 13.7416 25.0236 13.5718 25.0236 13.3463V12.3021H24.7216V12.0373H25.0236V11.6814L25.3698 11.5786ZM26.3714 12.6345C26.3714 12.409 26.3671 12.2154 26.3552 12.0373H26.6652L26.6815 12.4168H26.6932C26.782 12.16 26.9991 11.9978 27.2365 11.9978C27.2729 11.9978 27.3011 12.0018 27.3334 12.0056V12.334C27.2971 12.3259 27.261 12.3259 27.2124 12.3259C26.9631 12.3259 26.7857 12.5078 26.7376 12.769C26.7293 12.8226 26.7252 12.8768 26.7255 12.9311V13.9514H26.3714V12.6345ZM29.5102 12.9784C29.5102 13.6862 29.007 13.9947 28.5402 13.9947C28.0169 13.9947 27.6065 13.615 27.6065 13.0102C27.6065 12.3734 28.0371 11.9979 28.5725 11.9979C29.1319 11.9979 29.5102 12.3969 29.5102 12.9784ZM27.9686 12.9984C27.9686 13.4175 28.2101 13.734 28.5562 13.734C28.8945 13.734 29.1479 13.4213 29.1479 12.9904C29.1479 12.6662 28.9829 12.2587 28.5642 12.2587C28.1499 12.2587 27.9686 12.6386 27.9686 12.9984ZM30.053 12.5554C30.053 12.3539 30.0487 12.1956 30.0367 12.0375H30.3507L30.3709 12.3539H30.3789C30.4755 12.1758 30.7009 11.998 31.0228 11.998C31.2923 11.998 31.7111 12.1562 31.7111 12.8123V13.9514H31.357V12.8481C31.357 12.5398 31.2402 12.2825 30.9062 12.2825C30.6767 12.2825 30.4955 12.4448 30.4314 12.6384C30.4151 12.682 30.4071 12.7412 30.4071 12.8007V13.9514H30.053V12.5554Z" fill="#1A1F71"/>
</svg>
