<svg width="32" height="32" viewBox="0 0 32 32" fill="none" xmlns="http://www.w3.org/2000/svg">
<path d="M8.00004 29.3334C7.26671 29.3334 6.63915 29.0725 6.11737 28.5507C5.5956 28.0289 5.33426 27.4009 5.33337 26.6667V13.3334C5.33337 12.6 5.59471 11.9725 6.11737 11.4507C6.64004 10.9289 7.2676 10.6676 8.00004 10.6667H9.33337V8.00004C9.33337 6.1556 9.9836 4.5836 11.284 3.28404C12.5845 1.98449 14.1565 1.33426 16 1.33337C17.8436 1.33249 19.416 1.98271 20.7174 3.28404C22.0187 4.58538 22.6685 6.15737 22.6667 8.00004V10.6667H24C24.7334 10.6667 25.3614 10.928 25.884 11.4507C26.4067 11.9734 26.6676 12.6009 26.6667 13.3334V26.6667C26.6667 27.4 26.4058 28.028 25.884 28.5507C25.3623 29.0734 24.7343 29.3343 24 29.3334H8.00004ZM16 22.6667C16.7334 22.6667 17.3614 22.4058 17.884 21.884C18.4067 21.3623 18.6676 20.7343 18.6667 20C18.6658 19.2658 18.4049 18.6383 17.884 18.1174C17.3632 17.5965 16.7352 17.3352 16 17.3334C15.2649 17.3316 14.6374 17.5929 14.1174 18.1174C13.5974 18.6418 13.336 19.2694 13.3334 20C13.3307 20.7307 13.592 21.3587 14.1174 21.884C14.6427 22.4094 15.2703 22.6703 16 22.6667ZM12 10.6667H20V8.00004C20 6.88893 19.6112 5.94449 18.8334 5.16671C18.0556 4.38893 17.1112 4.00004 16 4.00004C14.8889 4.00004 13.9445 4.38893 13.1667 5.16671C12.3889 5.94449 12 6.88893 12 8.00004V10.6667Z" fill="black"/>
</svg>
