<svg width="32" height="32" viewBox="0 0 32 32" fill="none" xmlns="http://www.w3.org/2000/svg">
<path d="M25.3334 4H24C22.5273 4 21.3334 5.19391 21.3334 6.66667V25.3333C21.3334 26.8061 22.5273 28 24 28H25.3334C26.8061 28 28 26.8061 28 25.3333V6.66667C28 5.19391 26.8061 4 25.3334 4Z" fill="black"/>
<path d="M16.6666 12H15.3333C13.8605 12 12.6666 13.1939 12.6666 14.6667V25.3333C12.6666 26.8061 13.8605 28 15.3333 28H16.6666C18.1394 28 19.3333 26.8061 19.3333 25.3333V14.6667C19.3333 13.1939 18.1394 12 16.6666 12Z" fill="black"/>
<path d="M8 21.3334H6.66667C5.19391 21.3334 4 22.5273 4 24V25.3334C4 26.8061 5.19391 28 6.66667 28H8C9.47276 28 10.6667 26.8061 10.6667 25.3334V24C10.6667 22.5273 9.47276 21.3334 8 21.3334Z" fill="black"/>
</svg>
